<?xml version="1.0" encoding="utf-8"?>
<!-- Generator: Adobe Illustrator 21.1.0, SVG Export Plug-In . SVG Version: 6.00 Build 0)  -->
<!DOCTYPE svg PUBLIC "-//W3C//DTD SVG 1.1//EN" "http://www.w3.org/Graphics/SVG/1.1/DTD/svg11.dtd">
<svg version="1.1" id="Layer_1" xmlns="http://www.w3.org/2000/svg" xmlns:xlink="http://www.w3.org/1999/xlink" x="0px" y="0px"
	 width="189.4px" height="183.1px" viewBox="0 0 189.4 183.1" style="enable-background:new 0 0 189.4 183.1;" xml:space="preserve"
	>
<path d="M188.3,131.2l-28.8-40l22.5-39.8c1-1.8,1-4.1-0.2-5.9L153.8,2.6C152.8,1,151,0,149.1,0H5.7C3.4,0,1.3,1.4,0.4,3.5
	C-0.4,5.6,0,8.1,1.7,9.7l21.8,21.8v146c0,3.1,2.5,5.7,5.7,5.7h119.3c0.2,0,0.5,0,0.7,0c1.7,0,3.3-0.7,4.4-2.1l34.6-42.9
	C189.7,136.1,189.8,133.3,188.3,131.2z M175.6,132.9l-47.1,13.1l-23.7-29.3l33.5-29.2l9.1,5.3c0.2,0.8,0.5,1.5,0.9,2.2L175.6,132.9z
	 M34.7,42.1L80,98l-45.2,64.7V42.1z M84.9,104.1l9.4,11.6l-44.5,38.7L84.9,104.1z M89.4,97.7l19.2-27.5l22.7,13.3L100,110.7
	L89.4,97.7z M84.5,91.5L36,31.6l5-1l61.2,35.7L84.5,91.5z M52.2,28.4l87.6-17.1h0.7l-34.1,48.8L52.2,28.4z M42.3,22.7L22.9,11.3
	h77.5L42.3,22.7z M44.1,169.3L99,121.6l21.5,26.6L44.1,169.3z M125.7,154.5l13.9,17.2h-76L125.7,154.5z M149.8,85.4l-5.5-3.2
	l14.5-12.6L149.8,85.4z M170.5,48.8l-0.6,1.1l-32.5,28.3L113,63.9l34.8-49.9L170.5,48.8z M147.9,169.9l-14.2-17.6l36.6-10.2
	L147.9,169.9z"/>
</svg>
